<?xml version="1.0" encoding="UTF-8" standalone="no"?>
<svg
   xmlns:dc="http://purl.org/dc/elements/1.1/"
   xmlns:cc="http://creativecommons.org/ns#"
   xmlns:rdf="http://www.w3.org/1999/02/22-rdf-syntax-ns#"
   xmlns:svg="http://www.w3.org/2000/svg"
   xmlns="http://www.w3.org/2000/svg"
   xmlns:sodipodi="http://sodipodi.sourceforge.net/DTD/sodipodi-0.dtd"
   xmlns:inkscape="http://www.inkscape.org/namespaces/inkscape"
   id="ab9c9524-e61a-4262-9078-30d20f864b6e"
   data-name="Layer 1"
   width="735.68469"
   height="433.80103"
   viewBox="0 0 735.68469 433.801"
   version="1.1"
   sodipodi:docname="fonts.svg"
   inkscape:version="0.92.4 (5da689c313, 2019-01-14)">
  <metadata
     id="metadata107">
    <rdf:RDF>
      <cc:Work
         rdf:about="">
        <dc:format>image/svg+xml</dc:format>
        <dc:type
           rdf:resource="http://purl.org/dc/dcmitype/StillImage" />
        <dc:title>logo_design</dc:title>
      </cc:Work>
    </rdf:RDF>
  </metadata>
  <defs
     id="defs105" />
  <sodipodi:namedview
     pagecolor="#ffffff"
     bordercolor="#666666"
     borderopacity="1"
     objecttolerance="10"
     gridtolerance="10"
     guidetolerance="10"
     inkscape:pageopacity="0"
     inkscape:pageshadow="2"
     inkscape:window-width="1432"
     inkscape:window-height="831"
     id="namedview103"
     showgrid="false"
     fit-margin-top="0"
     fit-margin-left="0"
     fit-margin-right="0"
     fit-margin-bottom="0"
     inkscape:zoom="0.83390371"
     inkscape:cx="250.46273"
     inkscape:cy="327.62286"
     inkscape:window-x="2354"
     inkscape:window-y="225"
     inkscape:window-maximized="0"
     inkscape:current-layer="ab9c9524-e61a-4262-9078-30d20f864b6e"
     inkscape:pagecheckerboard="true" />
  <title
     id="title2">logo_design</title>
  <path
     d="m 715.32952,264.5763 -9.73,-8.18015 0.91324,-1.08627 0.914,0.76846 a 3.49807,3.49807 0 0 1 -0.0753,-1.54426 3.11622,3.11622 0 0 1 0.71737,-1.3979 3.63113,3.63113 0 0 1 1.8001,-1.19986 3.71676,3.71676 0 0 1 2.18241,0.0599 6.2446,6.2446 0 0 1 2.14641,1.20535 6.14364,6.14364 0 0 1 1.61826,2.02184 3.81845,3.81845 0 0 1 0.37806,2.23971 3.77516,3.77516 0 0 1 -0.84548,1.94024 2.9303,2.9303 0 0 1 -1.151,0.8581 3.18639,3.18639 0 0 1 -1.29016,0.24369 l 3.42438,2.87892 z m -5.26548,-6.2695 a 3.99956,3.99956 0 0 0 2.46912,1.13751 2.20126,2.20126 0 0 0 1.76838,-0.78562 2.25215,2.25215 0 0 0 0.472,-1.92635 4.16682,4.16682 0 0 0 -1.607,-2.31761 4.05845,4.05845 0 0 0 -2.47853,-1.13977 2.17571,2.17571 0 0 0 -1.7799,0.759 2.243,2.243 0 0 0 -0.42116,1.94651 4.1619,4.1619 0 0 0 1.57709,2.32633 z"
     id="path4"
     inkscape:connector-curvature="0"
     style="fill:#3f3d56" />
  <path
     d="m 718.30806,255.56051 -1.49562,-5.64377 -5.37711,-0.46208 1.25291,-1.49031 2.55694,0.30693 q 0.72687,0.0905 1.20027,0.17251 -0.19242,-0.65864 -0.3239,-1.188 l -0.66575,-2.58331 1.19723,-1.42407 1.26813,5.21511 5.922,0.5132 -1.23064,1.46381 -3.39972,-0.39368 -0.91247,-0.11143 1.22166,4.18118 z"
     id="path6"
     inkscape:connector-curvature="0"
     style="fill:#3f3d56" />
  <rect
     x="223.61034"
     y="704.50037"
     width="10"
     height="10"
     transform="rotate(-49.94575)"
     id="rect8"
     style="fill:#3f3d56" />
  <rect
     x="239.61034"
     y="704.50037"
     width="10"
     height="10"
     transform="rotate(-49.94575)"
     id="rect10"
     style="fill:#3f3d56" />
  <path
     d="m 715.32952,264.5763 -9.73,-8.18015 0.91324,-1.08627 0.914,0.76846 a 3.49807,3.49807 0 0 1 -0.0753,-1.54426 3.11622,3.11622 0 0 1 0.71737,-1.3979 3.63113,3.63113 0 0 1 1.8001,-1.19986 3.71676,3.71676 0 0 1 2.18241,0.0599 6.2446,6.2446 0 0 1 2.14641,1.20535 6.14364,6.14364 0 0 1 1.61826,2.02184 3.81845,3.81845 0 0 1 0.37806,2.23971 3.77516,3.77516 0 0 1 -0.84548,1.94024 2.9303,2.9303 0 0 1 -1.151,0.8581 3.18639,3.18639 0 0 1 -1.29016,0.24369 l 3.42438,2.87892 z m -5.26548,-6.2695 a 3.99956,3.99956 0 0 0 2.46912,1.13751 2.20126,2.20126 0 0 0 1.76838,-0.78562 2.25215,2.25215 0 0 0 0.472,-1.92635 4.16682,4.16682 0 0 0 -1.607,-2.31761 4.05845,4.05845 0 0 0 -2.47853,-1.13977 2.17571,2.17571 0 0 0 -1.7799,0.759 2.243,2.243 0 0 0 -0.42116,1.94651 4.1619,4.1619 0 0 0 1.57709,2.32633 z"
     id="path12"
     inkscape:connector-curvature="0"
     style="fill:#3f3d56" />
  <path
     d="m 718.30806,255.56051 -1.49562,-5.64377 -5.37711,-0.46208 1.25291,-1.49031 2.55694,0.30693 q 0.72687,0.0905 1.20027,0.17251 -0.19242,-0.65864 -0.3239,-1.188 l -0.66575,-2.58331 1.19723,-1.42407 1.26813,5.21511 5.922,0.5132 -1.23064,1.46381 -3.39972,-0.39368 -0.91247,-0.11143 1.22166,4.18118 z"
     id="path14"
     inkscape:connector-curvature="0"
     style="fill:#3f3d56" />
  <rect
     x="223.61034"
     y="704.50037"
     width="10"
     height="10"
     transform="rotate(-49.94575)"
     id="rect16"
     style="fill:#3f3d56" />
  <rect
     x="239.61034"
     y="704.50037"
     width="10"
     height="10"
     transform="rotate(-49.94575)"
     id="rect18"
     style="fill:#3f3d56" />
  <circle
     cx="482.60379"
     cy="28.30159"
     r="11.40881"
     id="circle22"
     style="fill:#f2f2f2" />
  <path
     d="m 201.78071,62.707994 a 22.03137,22.03137 0 0 0 -14.30416,-20.31043 22,22 0 1 0 -15.93632,0.21325 21.9912,21.9912 0 0 0 0.54858,40.99633 22,22 0 1 0 15.93632,-0.21325 22.03136,22.03136 0 0 0 13.75558,-20.6859 z m -42.54482,-40.43437 a 20,20 0 1 1 24.77122,19.13762 22.02329,22.02329 0 0 0 -9.02507,0.12077 20.02093,20.02093 0 0 1 -15.74615,-19.25839 z m 41.09358,81.457426 a 20,20 0 1 1 -24.77122,-19.137616 22.02352,22.02352 0 0 0 9.02507,-0.12076 20.02093,20.02093 0 0 1 15.74615,19.258376 z M 184.55569,82.407544 a 22.02329,22.02329 0 0 0 -9.02507,0.12077 19.97883,19.97883 0 0 1 -0.521,-38.93121 22.02352,22.02352 0 0 0 9.02507,-0.12076 19.97882,19.97882 0 0 1 0.52095,38.9312 z"
     id="path24"
     inkscape:connector-curvature="0"
     style="fill:#f2f2f2" />
  <rect
     x="150.4155"
     y="126.10276"
     width="5.3165998"
     height="1.7722"
     id="rect34"
     style="fill:#3f3d56" />
  <path
     d="M 569.29078,127.87495 H 558.4075 v -1.7722 h 10.88328 z m -21.7657,0 H 536.6418 v -1.7722 h 10.88328 z m -21.76656,0 h -10.88328 v -1.7722 h 10.88328 z m -21.76657,0 h -10.88241 v -1.7722 h 10.88241 z m -21.7657,0 h -10.88328 v -1.7722 h 10.88328 z m -21.76656,0 h -10.88328 v -1.7722 h 10.88328 z m -21.76657,0 h -10.88241 v -1.7722 h 10.88241 z m -21.7657,0 h -10.88324 v -1.7722 h 10.88328 z m -21.76656,0 h -10.88329 v -1.7722 h 10.88329 z m -21.7657,0 h -10.88329 v -1.7722 h 10.88331 z m -21.76657,0 h -10.88328 v -1.7722 h 10.88328 z m -21.76613,0 h -10.88328 v -1.7722 h 10.88328 z m -21.76657,0 h -10.88285 v -1.7722 h 10.88285 z m -21.76613,0 h -10.88328 v -1.7722 h 10.88328 z m -21.76613,0 h -10.88328 v -1.7722 h 10.88328 z m -21.76657,0 h -10.88288 v -1.7722 h 10.88285 z m -21.76613,0 h -10.88285 v -1.7722 h 10.88285 z m -21.76613,0 h -10.88328 v -1.7722 h 10.88328 z m -21.76613,0 h -10.88329 v -1.7722 h 10.88329 z"
     id="path36"
     inkscape:connector-curvature="0"
     style="fill:#3f3d56" />
  <rect
     x="580.17407"
     y="126.10276"
     width="5.3165998"
     height="1.7722"
     id="rect38"
     style="fill:#3f3d56" />
  <rect
     x="663.68903"
     y="172.17998"
     width="1.7722"
     height="5.3165998"
     id="rect40"
     style="fill:#3f3d56" />
  <path
     d="m 665.46118,310.41158 h -1.77221 v -11.07625 h 1.77221 z m 0,-22.15251 h -1.77221 v -11.07625 h 1.77221 z m 0,-22.1525 h -1.77221 v -11.07625 h 1.77221 z m 0,-22.1525 h -1.77221 v -11.07626 h 1.77221 z m 0,-22.15251 h -1.77221 v -11.07625 h 1.77221 z m 0,-22.1525 h -1.77221 v -11.07625 h 1.77221 z"
     id="path42"
     inkscape:connector-curvature="0"
     style="fill:#3f3d56" />
  <rect
     x="663.68903"
     y="321.48785"
     width="1.7722"
     height="5.3165998"
     id="rect44"
     style="fill:#3f3d56" />
  <rect
     x="88.610008"
     y="65.183365"
     width="1.7722"
     height="368.61765"
     id="rect46"
     style="fill:#f2f2f2" />
  <rect
     x="645.96698"
     y="64.961845"
     width="1.7722"
     height="368.61765"
     id="rect48"
     style="fill:#f2f2f2" />
  <rect
     x="0.22152996"
     y="352.9444"
     width="735.46313"
     height="1.7722"
     id="rect50"
     style="fill:#f2f2f2" />
  <rect
     x="0"
     y="143.82477"
     width="735.46313"
     height="1.7722"
     id="rect52"
     style="fill:#f2f2f2" />
  <path
     d="M 384.34207,112.36755 V 99.655824 h 1.41911 v 1.194156 a 3.49811,3.49811 0 0 1 1.13359,-1.051376 3.11624,3.11624 0 0 1 1.53164,-0.35046 3.63108,3.63108 0 0 1 2.07679,0.605726 3.71678,3.71678 0 0 1 1.35857,1.709 6.2446,6.2446 0 0 1 0.45863,2.41861 6.1436,6.1436 0 0 1 -0.50622,2.53975 3.81851,3.81851 0 0 1 -1.47106,1.73066 3.77519,3.77519 0 0 1 -2.02921,0.60141 2.93033,2.93033 0 0 1 -1.39751,-0.32883 3.18628,3.18628 0 0 1 -1.01676,-0.83072 v 4.47377 z m 1.41049,-8.0649 a 3.99966,3.99966 0 0 0 0.71822,2.622 2.20128,2.20128 0 0 0 1.73932,0.848 2.25213,2.25213 0 0 0 1.77826,-0.87831 4.16684,4.16684 0 0 0 0.73986,-2.72147 4.05844,4.05844 0 0 0 -0.72255,-2.63061 2.17569,2.17569 0 0 0 -1.72634,-0.874 2.243,2.243 0 0 0 -1.76095,0.93023 4.16191,4.16191 0 0 0 -0.76582,2.70416 z"
     id="path92"
     inkscape:connector-curvature="0"
     style="fill:#3f3d56" />
  <path
     d="m 393.1598,108.84565 3.35749,-4.77664 -3.10654,-4.413186 h 1.947 l 1.41049,2.154676 q 0.39848,0.6146 0.64034,1.02974 0.38032,-0.57112 0.70092,-1.01244 l 1.54895,-2.171996 h 1.86046 l -3.17577,4.326656 3.41806,4.86317 h -1.91238 l -1.88642,-2.8556 -0.5019,-0.77015 -2.41427,3.62575 z"
     id="path94"
     inkscape:connector-curvature="0"
     style="fill:#3f3d56" />
  <rect
     x="334.14496"
     y="99.071053"
     width="10"
     height="10"
     id="rect96"
     style="fill:#3f3d56" />
  <rect
     x="350.14496"
     y="99.071053"
     width="10"
     height="10"
     id="rect98"
     style="fill:#3f3d56" />
  <rect
     x="366.14496"
     y="99.071053"
     width="10"
     height="10"
     id="rect100"
     style="fill:#3f3d56" />
  <text
     xml:space="preserve"
     style="font-style:normal;font-weight:normal;font-size:40px;line-height:1.25;font-family:sans-serif;letter-spacing:0px;word-spacing:0px;fill:#f4424a;fill-opacity:0;stroke:none;"
     x="178.06903"
     y="252.34019"
     id="text935"><tspan
       sodipodi:role="line"
       id="tspan933"
       x="178.06903"
       y="287.73083"
       style="fill:#f4424a;fill-opacity:0;" /></text>
  <text
     xml:space="preserve"
     style="font-style:normal;font-variant:normal;font-weight:normal;font-stretch:normal;font-size:178.66667175px;line-height:1.25;font-family:'Noto Sans Mono CJK JP';-inkscape-font-specification:'Noto Sans Mono CJK JP';letter-spacing:0px;word-spacing:0px;fill:#f4424a;fill-opacity:1;stroke:none"
     x="112.28033"
     y="311.05435"
     id="text943"><tspan
       sodipodi:role="line"
       id="tspan941"
       x="112.28033"
       y="311.05435"
       style="font-style:normal;font-variant:normal;font-weight:normal;font-stretch:normal;font-size:178.66667175px;font-family:'Noto Serif CJK TC';-inkscape-font-specification:'Noto Serif CJK TC'">FONT</tspan></text>
</svg>
